<svg width="66" height="77" viewBox="0 0 66 77" fill="none" xmlns="http://www.w3.org/2000/svg">
<path opacity="0.2" d="M42.375 1V22.875H64.25L42.375 1Z" fill="#A9A9A9"/>
<path d="M61.125 76H4.875C4.0462 76 3.25134 75.6708 2.66529 75.0847C2.07924 74.4987 1.75 73.7038 1.75 72.875V4.125C1.75 3.2962 2.07924 2.50134 2.66529 1.91529C3.25134 1.32924 4.0462 1 4.875 1H42.375L64.25 22.875V72.875C64.25 73.7038 63.9208 74.4987 63.3347 75.0847C62.7487 75.6708 61.9538 76 61.125 76Z" stroke="#A9A9A9" stroke-width="2" stroke-linecap="round" stroke-linejoin="round"/>
<path d="M42.375 1V22.875H64.25" stroke="#A9A9A9" stroke-width="2" stroke-linecap="round" stroke-linejoin="round"/>
<path d="M22.0625 46.3125L33 35.375L43.9375 46.3125" stroke="#A9A9A9" stroke-width="2" stroke-linecap="round" stroke-linejoin="round"/>
<path d="M33 60.375V35.375" stroke="#A9A9A9" stroke-width="2" stroke-linecap="round" stroke-linejoin="round"/>
</svg>
