<svg width="20" height="20" viewBox="0 0 20 20" fill="none" xmlns="http://www.w3.org/2000/svg">
<path d="M5.5 16.75C7.15685 16.75 8.5 15.4069 8.5 13.75C8.5 12.0931 7.15685 10.75 5.5 10.75C3.84315 10.75 2.5 12.0931 2.5 13.75C2.5 15.4069 3.84315 16.75 5.5 16.75Z" stroke="#015EA8" stroke-width="1.5" stroke-linecap="round" stroke-linejoin="round"/>
<path d="M1 19C1.52395 18.3014 2.20336 17.7344 2.98442 17.3438C3.76549 16.9533 4.62675 16.75 5.5 16.75C6.37325 16.75 7.23451 16.9533 8.01558 17.3438C8.79664 17.7344 9.47605 18.3014 10 19" stroke="#015EA8" stroke-width="1.5" stroke-linecap="round" stroke-linejoin="round"/>
<path d="M5.5 7C7.15685 7 8.5 5.65685 8.5 4C8.5 2.34315 7.15685 1 5.5 1C3.84315 1 2.5 2.34315 2.5 4C2.5 5.65685 3.84315 7 5.5 7Z" stroke="#015EA8" stroke-width="1.5" stroke-linecap="round" stroke-linejoin="round"/>
<path d="M1 9.25C1.52395 8.5514 2.20336 7.98438 2.98442 7.59385C3.76549 7.20332 4.62675 7 5.5 7C6.37325 7 7.23451 7.20332 8.01558 7.59385C8.79664 7.98438 9.47605 8.5514 10 9.25" stroke="#015EA8" stroke-width="1.5" stroke-linecap="round" stroke-linejoin="round"/>
<path d="M14.5 16.75C16.1569 16.75 17.5 15.4069 17.5 13.75C17.5 12.0931 16.1569 10.75 14.5 10.75C12.8431 10.75 11.5 12.0931 11.5 13.75C11.5 15.4069 12.8431 16.75 14.5 16.75Z" stroke="#015EA8" stroke-width="1.5" stroke-linecap="round" stroke-linejoin="round"/>
<path d="M10 19C10.524 18.3014 11.2034 17.7344 11.9844 17.3438C12.7655 16.9533 13.6267 16.75 14.5 16.75C15.3733 16.75 16.2345 16.9533 17.0156 17.3438C17.7966 17.7344 18.476 18.3014 19 19" stroke="#015EA8" stroke-width="1.5" stroke-linecap="round" stroke-linejoin="round"/>
<path d="M14.5 7C16.1569 7 17.5 5.65685 17.5 4C17.5 2.34315 16.1569 1 14.5 1C12.8431 1 11.5 2.34315 11.5 4C11.5 5.65685 12.8431 7 14.5 7Z" stroke="#015EA8" stroke-width="1.5" stroke-linecap="round" stroke-linejoin="round"/>
<path d="M10 9.25C10.524 8.5514 11.2034 7.98438 11.9844 7.59385C12.7655 7.20332 13.6267 7 14.5 7C15.3733 7 16.2345 7.20332 17.0156 7.59385C17.7966 7.98438 18.476 8.5514 19 9.25" stroke="#015EA8" stroke-width="1.5" stroke-linecap="round" stroke-linejoin="round"/>
</svg>
