<svg width="21" height="16" viewBox="0 0 21 16" fill="none" xmlns="http://www.w3.org/2000/svg">
<path d="M8.34307 11.2701C11.1791 11.2701 13.4781 8.97108 13.4781 6.13506C13.4781 3.29905 11.1791 1 8.34307 1C5.50705 1 3.20801 3.29905 3.20801 6.13506C3.20801 8.97108 5.50705 11.2701 8.34307 11.2701Z" stroke="#015EA8" stroke-width="1.5" stroke-miterlimit="10"/>
<path d="M1 14.6939C1.89971 13.6216 3.02336 12.7593 4.29197 12.1677C5.56058 11.5761 6.94337 11.2695 8.34314 11.2695C9.74291 11.2695 11.1257 11.5761 12.3943 12.1677C13.6629 12.7593 14.7866 13.6216 15.6863 14.6939" stroke="#015EA8" stroke-width="1.5" stroke-linecap="round" stroke-linejoin="round"/>
<path d="M17.9289 10.5864C18.6852 10.5864 19.2983 9.97328 19.2983 9.21701C19.2983 8.46074 18.6852 7.84766 17.9289 7.84766C17.1726 7.84766 16.5596 8.46074 16.5596 9.21701C16.5596 9.97328 17.1726 10.5864 17.9289 10.5864Z" stroke="#015EA8" stroke-width="1.5" stroke-linecap="round" stroke-linejoin="round"/>
<path d="M17.9287 7.84733V6.82031" stroke="#015EA8" stroke-width="1.5" stroke-linecap="round" stroke-linejoin="round"/>
<path d="M16.7389 8.53108L15.8574 8.01758" stroke="#015EA8" stroke-width="1.5" stroke-linecap="round" stroke-linejoin="round"/>
<path d="M16.7389 9.90039L15.8574 10.4139" stroke="#015EA8" stroke-width="1.5" stroke-linecap="round" stroke-linejoin="round"/>
<path d="M17.9287 10.5859V11.613" stroke="#015EA8" stroke-width="1.5" stroke-linecap="round" stroke-linejoin="round"/>
<path d="M19.1182 9.90039L19.9997 10.4139" stroke="#015EA8" stroke-width="1.5" stroke-linecap="round" stroke-linejoin="round"/>
<path d="M19.1182 8.53108L19.9997 8.01758" stroke="#015EA8" stroke-width="1.5" stroke-linecap="round" stroke-linejoin="round"/>
</svg>
