<svg width="27" height="23" viewBox="0 0 27 23" fill="none" xmlns="http://www.w3.org/2000/svg">
<path d="M1 21.7461V6.74609C1 6.54718 1.07902 6.35642 1.21967 6.21576C1.36032 6.07511 1.55109 5.99609 1.75 5.99609H13.5L19 10.999V21.7461L16 20.2461L13 21.7461L10 20.2461L7 21.7461L4 20.2461L1 21.7461Z" stroke="#015EA8" stroke-width="1.5" stroke-linecap="round" stroke-linejoin="round"/>
<path d="M11.5 11.9961H16" stroke="#015EA8" stroke-width="1.5" stroke-linecap="round" stroke-linejoin="round"/>
<path d="M11.5 14.9961H16" stroke="#015EA8" stroke-width="1.5" stroke-linecap="round" stroke-linejoin="round"/>
<path d="M8.5 10.4961H4V16.4961H8.5V10.4961Z" stroke="#015EA8" stroke-width="1.5" stroke-linecap="round" stroke-linejoin="round"/>
<path d="M22 1L22.8981 3.76393H25.8042L23.4531 5.47214L24.3511 8.23607L22 6.52786L19.6489 8.23607L20.5469 5.47214L18.1958 3.76393H21.1019L22 1Z" stroke="#015EA8" stroke-width="1.5" stroke-linejoin="round"/>
</svg>
