<svg width="23" height="17" viewBox="0 0 23 17" fill="none" xmlns="http://www.w3.org/2000/svg">
<path d="M11.4996 12.5851C13.4992 12.5851 15.1203 10.9641 15.1203 8.96444C15.1203 6.96479 13.4992 5.34375 11.4996 5.34375C9.49994 5.34375 7.87891 6.96479 7.87891 8.96444C7.87891 10.9641 9.49994 12.5851 11.4996 12.5851Z" stroke="#015EA8" stroke-width="1.5" stroke-linecap="round" stroke-linejoin="round"/>
<path d="M17.6553 6.79298C18.4987 6.79157 19.3307 6.98725 20.0851 7.36443C20.8394 7.7416 21.4952 8.28983 22.0001 8.96539" stroke="#015EA8" stroke-width="1.5" stroke-linecap="round" stroke-linejoin="round"/>
<path d="M1 8.96539C1.5049 8.28983 2.16068 7.7416 2.91504 7.36443C3.66939 6.98725 4.50144 6.79157 5.34483 6.79298" stroke="#015EA8" stroke-width="1.5" stroke-linecap="round" stroke-linejoin="round"/>
<path d="M6.28613 15.8461C6.763 14.8695 7.50457 14.0465 8.42636 13.4708C9.34816 12.8951 10.4131 12.5898 11.4999 12.5898C12.5867 12.5898 13.6517 12.8951 14.5735 13.4708C15.4953 14.0465 16.2369 14.8695 16.7137 15.8461" stroke="#015EA8" stroke-width="1.5" stroke-linecap="round" stroke-linejoin="round"/>
<path d="M5.3448 6.7931C4.79504 6.79366 4.25647 6.63775 3.79202 6.34359C3.32758 6.04943 2.95644 5.62917 2.72196 5.13192C2.48749 4.63466 2.39938 4.08095 2.46791 3.53547C2.53644 2.98999 2.75879 2.47529 3.10899 2.05149C3.45918 1.62769 3.92275 1.3123 4.44553 1.14218C4.9683 0.972051 5.5287 0.954215 6.06124 1.09075C6.59378 1.22729 7.07647 1.51256 7.4529 1.91323C7.82933 2.31391 8.08397 2.81343 8.18705 3.35345" stroke="#015EA8" stroke-width="1.5" stroke-linecap="round" stroke-linejoin="round"/>
<path d="M14.8125 3.35345C14.9156 2.81343 15.1702 2.31391 15.5466 1.91323C15.9231 1.51256 16.4058 1.22729 16.9383 1.09075C17.4708 0.954215 18.0312 0.972051 18.554 1.14218C19.0768 1.3123 19.5404 1.62769 19.8906 2.05149C20.2408 2.47529 20.4631 2.98999 20.5316 3.53547C20.6002 4.08095 20.5121 4.63466 20.2776 5.13192C20.0431 5.62917 19.672 6.04943 19.2075 6.34359C18.7431 6.63775 18.2045 6.79366 17.6547 6.7931" stroke="#015EA8" stroke-width="1.5" stroke-linecap="round" stroke-linejoin="round"/>
</svg>
